<?xml version="1.0" standalone="no"?>
<!DOCTYPE svg PUBLIC "-//W3C//DTD SVG 20010904//EN"
 "http://www.w3.org/TR/2001/REC-SVG-20010904/DTD/svg10.dtd">
<svg version="1.0" xmlns="http://www.w3.org/2000/svg"
 width="688.000000pt" height="688.000000pt" viewBox="0 0 688.000000 688.000000"
 preserveAspectRatio="xMidYMid meet">
<metadata>
Created by potrace 1.11, written by Peter Selinger 2001-2013
</metadata>
<g transform="translate(0.000000,688.000000) scale(0.100000,-0.100000)"
fill="#000000" stroke="none">
<path d="M3016 6470 c37 -52 91 -100 112 -100 26 0 9 -16 -45 -45 -66 -34 -56
-41 43 -30 75 8 144 40 161 75 6 14 13 52 14 85 l3 60 -29 0 c-22 0 -33 -7
-42 -26 l-13 -27 -68 15 c-37 9 -82 22 -101 29 -18 8 -42 14 -52 14 -16 0 -14
-7 17 -50z"/>
<path d="M4400 6021 c-18 -11 -199 -61 -218 -61 -7 0 -18 14 -23 30 -10 27
-15 30 -55 30 -41 0 -44 -2 -34 -19 5 -11 10 -45 10 -76 0 -35 6 -68 17 -85
23 -39 81 -69 155 -81 35 -5 78 -11 95 -14 51 -9 32 17 -40 56 -36 19 -55 34
-47 37 49 14 122 89 174 180 8 14 -11 16 -34 3z"/>
<path d="M3054 5829 c-16 -33 -21 -89 -9 -108 4 -7 -6 -14 -24 -17 -29 -6 -29
-7 -15 -30 19 -28 53 -41 64 -24 4 7 10 0 13 -19 4 -20 15 -35 29 -40 34 -13
41 -3 18 26 -61 77 114 69 187 -9 67 -71 100 -221 84 -371 -12 -108 -24 -147
-45 -147 -32 0 -146 158 -146 202 0 23 29 36 41 17 6 -10 2 -16 -12 -21 -26
-10 -15 -28 17 -28 18 0 24 5 24 21 0 39 -19 59 -55 59 -39 0 -47 -9 -47 -54
0 -43 24 -88 77 -145 87 -94 93 -107 87 -218 -3 -65 3 -163 18 -291 12 -107
20 -196 17 -198 -2 -3 -21 16 -41 40 -21 26 -51 49 -72 56 -77 26 -151 -20
-125 -76 14 -33 15 -31 -18 -42 -25 -9 -30 -17 -36 -62 -4 -28 -5 -54 -2 -57
10 -9 76 37 82 57 3 10 3 30 -1 44 -5 21 -3 26 14 26 11 0 25 6 31 14 10 12 8
15 -11 18 -32 4 -32 42 1 46 53 8 91 -8 117 -48 23 -35 27 -51 29 -137 1 -54
5 -107 9 -118 4 -11 -7 -3 -24 18 -18 20 -36 37 -41 37 -5 0 -15 -24 -24 -54
-19 -65 -12 -89 41 -136 l39 -33 6 29 c23 94 22 94 60 -39 l35 -124 -68 58
c-38 31 -100 76 -137 98 -104 62 -153 127 -136 181 6 20 8 21 26 4 10 -9 19
-28 19 -42 0 -18 4 -23 16 -18 9 3 18 6 20 6 8 0 4 41 -6 59 -5 10 -22 24 -39
30 -40 17 -68 1 -77 -44 -3 -19 -7 -35 -9 -35 -1 0 -21 7 -44 15 -23 8 -78 21
-123 30 -88 16 -93 19 -84 33 4 6 23 6 52 0 41 -9 48 -8 71 14 39 36 86 108
71 109 -7 0 -32 2 -56 6 -70 8 -122 -23 -122 -74 0 -10 -9 -24 -19 -30 -17
-11 -22 -7 -44 42 -52 108 -71 192 -72 305 0 99 2 109 33 172 42 87 130 181
163 176 32 -4 40 -47 10 -55 -35 -9 -23 -24 17 -21 34 3 37 6 40 35 6 63 -69
104 -131 72 -12 -6 -39 -27 -59 -47 -21 -20 -38 -31 -38 -26 0 6 11 46 24 90
53 177 63 310 29 382 -29 62 -89 79 -158 46 -59 -28 -94 -114 -60 -147 21 -21
28 -21 47 1 29 33 32 45 10 33 -11 -6 -25 -11 -31 -11 -22 0 -10 42 19 71 41
41 85 38 117 -10 32 -47 31 -124 -4 -232 -14 -46 -35 -121 -47 -166 l-21 -83
-37 0 c-52 0 -120 34 -162 81 -60 65 -59 124 0 124 26 0 29 -3 26 -30 -4 -26
-2 -28 12 -16 35 29 9 91 -38 91 -27 0 -76 -35 -76 -55 0 -24 -32 -26 -75 -5
-51 25 -78 20 -126 -21 -19 -16 -42 -32 -51 -35 -29 -9 -21 -20 31 -43 67 -28
121 -28 149 2 12 13 22 28 22 34 0 5 11 15 25 21 21 10 25 9 25 -4 0 -24 28
-72 67 -115 19 -21 31 -39 25 -39 -6 0 -20 -15 -31 -34 -37 -59 -23 -126 27
-126 43 0 56 13 42 40 l-12 23 -12 -21 c-9 -17 -14 -20 -24 -10 -17 17 -15 31
9 62 16 21 29 26 63 26 24 0 57 -3 73 -6 30 -6 30 -6 21 -57 -4 -29 -10 -79
-12 -112 -4 -57 -6 -60 -33 -63 -40 -5 -63 -30 -63 -68 0 -25 7 -38 26 -50 22
-15 27 -15 35 -3 14 22 11 37 -8 35 -12 0 -19 7 -21 22 -3 18 1 22 22 22 32 0
52 -30 61 -90 11 -73 34 -137 71 -190 l34 -50 -147 6 c-202 7 -247 20 -320 88
-27 24 -33 38 -33 71 0 47 25 81 66 91 37 9 64 -18 46 -47 -20 -32 -7 -35 23
-5 22 22 24 28 13 46 -13 20 -57 40 -89 40 -28 0 -32 18 -14 56 29 61 14 98
-68 175 l-72 68 -12 -37 c-6 -20 -12 -67 -12 -104 -1 -62 2 -70 31 -104 25
-28 37 -35 59 -32 23 4 28 0 32 -21 3 -14 4 -28 2 -30 -8 -7 -142 21 -181 39
-124 54 -229 246 -166 303 23 21 66 22 86 1 14 -14 14 -17 0 -40 -24 -36 -7
-44 22 -11 30 35 30 49 0 83 -17 21 -33 28 -58 28 -112 0 -140 -119 -65 -266
20 -39 36 -72 34 -73 -73 -46 -112 -108 -101 -164 8 -40 25 -53 65 -49 38 4
60 31 41 50 -11 11 -16 9 -27 -6 -16 -21 -45 -15 -45 9 0 27 27 70 54 84 35
19 90 8 194 -39 86 -38 87 -39 99 -86 31 -124 153 -177 456 -200 42 -3 77 -9
77 -13 0 -3 -16 -15 -37 -26 -47 -26 -73 -69 -73 -123 0 -66 31 -111 77 -112
28 0 46 31 37 65 -7 30 -24 33 -24 4 0 -27 -40 -22 -51 7 -13 36 12 66 85 102
215 109 441 2 646 -305 136 -203 148 -239 165 -490 l8 -102 -29 8 c-52 15 -98
38 -141 70 -41 30 -43 33 -44 89 -2 51 -2 53 -8 18 l-6 -39 -22 39 c-12 22
-24 56 -28 76 -6 31 -3 41 19 62 35 36 59 33 95 -11 l31 -38 0 31 c0 59 -74
94 -132 63 -28 -15 -48 -69 -42 -115 5 -44 24 -106 33 -114 4 -3 17 -21 29
-41 21 -35 21 -37 4 -53 -10 -9 -24 -16 -30 -16 -19 0 -54 -60 -58 -101 -4
-40 20 -79 49 -79 23 1 50 29 43 46 -5 14 -9 13 -26 -7 -17 -21 -21 -22 -30
-9 -32 48 10 111 80 121 44 7 199 -55 209 -84 8 -20 -1 -132 -25 -317 -9 -69
-18 -136 -19 -150 -5 -44 -65 -240 -87 -284 -7 -13 -6 -16 2 -11 26 16 -60
-99 -87 -116 -17 -12 -46 -19 -74 -19 -41 0 -51 5 -83 38 -21 20 -57 69 -81
108 l-43 72 25 42 c45 75 86 104 180 126 45 10 57 10 85 -5 37 -18 45 -46 23
-76 -13 -17 -18 -18 -36 -7 -28 18 -36 7 -14 -18 37 -41 95 -8 95 55 0 73 -74
106 -188 83 l-71 -14 -5 31 c-11 55 -77 102 -120 85 -20 -7 -26 -17 -26 -38 0
-27 15 -52 32 -52 4 0 5 14 2 30 -6 26 -3 30 14 30 30 0 52 -27 52 -63 0 -31
-17 -66 -57 -115 l-19 -24 -13 54 c-7 29 -16 100 -21 158 -7 77 -18 128 -41
190 -22 59 -33 110 -36 168 l-6 82 34 0 c42 0 54 -8 64 -39 6 -19 2 -28 -16
-43 l-24 -19 25 3 c20 2 27 11 34 40 12 48 -5 83 -51 105 -18 8 -33 18 -33 22
0 3 10 35 21 71 26 81 36 244 19 296 -7 20 -26 59 -43 86 -25 41 -29 53 -21
76 8 22 15 26 38 24 18 -3 26 0 22 7 -4 6 -16 11 -27 11 -24 0 -26 38 -1 46
78 25 95 60 79 169 -6 44 -12 82 -14 84 -5 7 -97 -69 -115 -97 -22 -33 -24
-105 -3 -122 20 -16 19 -54 -2 -97 -13 -28 -14 -42 -6 -63 10 -26 9 -28 -18
-34 -28 -5 -63 -33 -70 -55 -2 -6 -17 -12 -34 -14 -16 -3 -24 -2 -17 0 6 2 12
13 12 23 0 27 -40 32 -98 12 -43 -15 -49 -19 -39 -33 15 -20 70 -49 93 -49 9
0 32 10 51 21 31 20 35 20 52 5 26 -24 30 -20 24 19 -6 35 -5 35 31 35 l36 0
0 -49 c0 -44 2 -49 20 -44 58 15 28 -215 -43 -339 -14 -24 -30 -62 -37 -86
l-11 -43 -39 50 c-21 27 -60 66 -85 87 l-46 39 72 35 c54 26 76 44 90 70 55
102 -25 185 -113 117 l-38 -29 0 -76 c0 -43 -4 -82 -8 -89 -5 -8 -26 4 -66 37
-32 26 -110 81 -174 121 -164 105 -223 153 -249 204 -28 55 -22 77 21 73 26
-2 32 -8 36 -33 l6 -30 18 28 c18 26 18 28 1 47 -10 11 -31 24 -46 28 -22 5
-26 10 -19 22 8 13 15 12 57 -2 26 -9 59 -19 73 -23 24 -6 24 -5 6 9 -16 13
-19 27 -17 71 1 30 -1 55 -5 55 -5 0 -23 -15 -42 -32 l-33 -33 11 29 c20 53
-13 106 -65 106 -17 0 -36 -5 -43 -12 -19 -19 -14 -56 8 -68 21 -11 27 -1 10
16 -8 8 -6 15 5 24 21 18 49 2 53 -29 4 -24 -36 -93 -73 -126 -16 -14 -24 -34
-26 -67 -2 -25 -1 -44 2 -42 3 2 11 -8 18 -23 6 -14 23 -34 36 -45 29 -23 32
-38 7 -38 -9 0 -23 -9 -30 -20 -10 -17 -9 -22 13 -36 13 -9 64 -31 112 -49
101 -37 216 -102 208 -116 -4 -5 -10 -7 -15 -4 -5 3 -10 -2 -12 -11 -2 -11
-15 -17 -38 -20 -19 -1 -56 -14 -81 -28 -47 -24 -112 -37 -125 -23 -13 13 -23
7 -17 -9 5 -15 0 -16 -43 -11 -54 6 -96 43 -87 78 9 32 22 32 54 0 45 -45 55
-38 17 12 -18 23 -33 43 -34 45 -1 1 -8 0 -16 -3 -17 -7 -41 -50 -44 -77 -4
-49 129 -109 184 -83 15 7 46 16 70 19 36 5 42 4 42 -11 0 -10 9 -37 20 -60
11 -24 14 -43 9 -43 -21 0 -70 42 -65 56 7 17 -6 18 -22 2 -9 -9 -12 -9 -12 0
0 7 -5 12 -11 12 -5 0 -8 -4 -4 -9 3 -6 -3 -15 -13 -20 -11 -6 -25 -23 -31
-40 -11 -25 -10 -33 4 -55 11 -17 15 -35 11 -52 l-7 -26 32 19 c18 10 51 36
73 59 43 43 72 59 81 45 8 -14 57 -20 82 -10 27 10 30 40 5 62 -20 18 -46 17
-65 -2 -10 -11 -8 -13 10 -8 13 3 24 -1 27 -8 13 -34 -46 -34 -68 0 -19 30
-21 85 -3 110 11 14 23 17 64 13 40 -4 65 -15 117 -52 36 -26 66 -49 66 -51 0
-19 -58 -129 -90 -171 -31 -41 -56 -61 -114 -89 -66 -33 -82 -37 -152 -37
-165 0 -313 79 -248 133 14 11 19 10 35 -10 l19 -23 0 35 c0 31 -3 35 -30 39
-31 5 -47 -7 -70 -50 l-12 -24 -21 20 c-12 11 -46 32 -76 47 -62 31 -101 67
-101 92 0 15 3 14 19 -6 l18 -24 6 24 c8 29 8 29 -37 36 -34 5 -36 4 -36 -20
0 -24 -2 -25 -32 -16 -18 5 -85 9 -148 9 -264 1 -399 36 -455 118 -38 56 -34
93 18 137 l42 37 -40 -6 c-87 -12 -111 -95 -52 -182 58 -86 191 -140 373 -151
l92 -6 -25 -21 c-34 -30 -36 -91 -4 -117 34 -28 51 -24 51 11 0 30 -14 41 -23
18 -4 -10 -8 -10 -15 1 -15 21 -4 39 42 66 118 69 203 37 365 -137 l52 -56
-78 5 c-62 4 -95 1 -161 -17 -83 -22 -84 -23 -110 -3 -14 10 -28 25 -30 31 -5
17 30 15 57 -4 22 -16 22 -16 19 12 -2 22 -9 30 -27 32 -64 10 -99 -32 -66
-81 16 -25 15 -25 -37 -55 -29 -16 -73 -45 -98 -64 l-46 -35 -60 13 c-111 22
-174 69 -215 159 -26 56 -24 91 5 110 41 27 87 -10 54 -43 -9 -9 -7 -12 9 -12
30 0 42 54 17 81 -25 28 -84 26 -113 -5 -19 -21 -22 -33 -19 -79 l3 -55 -25
13 c-14 7 -49 16 -79 20 -52 7 -53 7 -46 -16 14 -46 45 -98 63 -108 10 -6 42
-9 70 -9 45 1 50 3 41 19 -18 34 -9 44 11 11 25 -41 25 -49 -1 -57 -45 -15
-78 -122 -47 -153 27 -27 78 -7 78 31 0 17 -2 17 -22 3 -29 -21 -38 -20 -38 3
0 33 11 51 42 67 24 12 36 13 66 3 33 -10 123 -48 130 -54 8 -7 -177 -175
-219 -197 -81 -44 -156 -34 -180 25 -17 41 4 81 46 85 25 3 27 2 16 -12 -12
-14 -10 -16 8 -16 23 0 26 11 11 41 -17 31 -63 25 -95 -13 -37 -44 -31 -106
14 -152 30 -29 36 -31 104 -31 96 1 148 31 300 173 38 35 70 62 72 60 2 -2 -1
-21 -7 -44 -14 -52 -4 -89 32 -126 25 -24 36 -29 71 -26 53 4 71 28 45 57 -25
28 -51 29 -36 2 8 -16 6 -21 -10 -26 -23 -7 -46 7 -52 33 -7 27 36 147 67 188
30 39 107 91 173 117 60 24 75 21 23 -5 -51 -25 -101 -89 -101 -130 0 -90 127
-162 198 -112 27 19 29 50 3 64 -32 17 -46 12 -27 -9 24 -27 12 -41 -33 -41
-28 0 -44 7 -64 28 -74 78 19 164 197 183 50 6 156 18 236 28 96 12 147 14
152 8 14 -22 18 -96 8 -144 -20 -94 -113 -173 -150 -128 -16 20 -8 51 13 47
18 -3 21 6 8 26 -6 10 -13 11 -34 1 -63 -29 -30 -123 43 -121 43 1 85 29 121
82 18 25 34 46 35 48 1 2 23 -3 47 -12 80 -27 148 16 112 70 -9 14 -23 24 -32
22 -25 -5 -26 -25 -2 -31 19 -5 20 -8 9 -21 -27 -34 -83 -13 -99 36 -14 44
-18 135 -6 147 6 4 38 18 73 29 61 20 62 20 62 1 0 -29 37 -61 67 -57 35 4 71
53 57 76 -18 28 -42 27 -37 -1 5 -25 -19 -53 -37 -42 -16 10 -12 57 8 85 9 14
49 56 89 93 76 70 107 82 135 50 53 -63 99 -216 76 -252 -10 -16 -9 -23 5 -39
10 -10 17 -35 17 -56 0 -34 -2 -37 -22 -30 -76 23 -148 91 -172 161 -21 60
-20 76 2 96 24 22 46 21 67 0 16 -16 16 -17 -1 -30 -22 -16 -9 -31 14 -17 29
18 27 59 -4 83 -36 28 -60 26 -95 -8 -41 -41 -41 -107 1 -186 36 -68 36 -72 9
-80 -44 -14 -73 -100 -49 -146 20 -36 80 -18 80 23 0 17 -2 17 -24 3 -17 -11
-26 -13 -31 -5 -13 21 5 60 35 75 35 18 83 9 161 -30 43 -22 47 -27 64 -90 20
-75 71 -186 115 -250 16 -24 30 -48 30 -54 0 -14 -106 -52 -182 -64 -141 -22
-266 36 -269 125 0 19 -4 16 -17 -15 l-17 -38 -17 33 c-47 87 -29 124 66 137
31 4 59 10 62 14 3 3 9 22 14 42 l8 36 -31 -6 c-33 -7 -67 -37 -67 -61 0 -10
-8 -12 -30 -8 -24 5 -35 1 -60 -24 -63 -63 -24 -158 99 -242 l34 -24 -34 -12
c-19 -7 -43 -13 -54 -13 -18 -1 -18 0 3 15 28 20 28 26 -5 59 -24 23 -34 26
-69 22 -22 -2 -53 -12 -68 -22 l-27 -18 42 -25 c24 -14 56 -29 73 -33 31 -9
-64 -5 -229 7 -85 7 -99 1 -107 -40 -3 -20 26 -45 39 -33 4 5 1 12 -7 18 -13
8 -13 10 0 19 24 16 66 12 91 -9 l24 -19 -44 -41 c-70 -65 -113 -81 -217 -81
-191 0 -325 74 -390 214 -30 64 -31 96 -4 96 12 0 24 -9 29 -22 l8 -22 12 22
12 22 26 -31 c26 -31 29 -31 87 -25 84 9 90 19 39 67 -48 44 -89 51 -118 19
-16 -17 -20 -18 -38 -5 -33 23 -73 19 -96 -11 -25 -31 -27 -71 -6 -120 l15
-35 -53 42 c-28 23 -76 60 -105 83 l-54 41 7 63 6 63 -50 52 c-27 28 -53 48
-57 44 -5 -4 -10 -37 -12 -72 -4 -67 5 -85 64 -122 16 -11 15 -11 -9 -3 -81
28 -157 -12 -157 -82 0 -44 33 -96 65 -104 34 -8 48 6 39 40 -7 31 -24 35 -24
5 0 -27 -21 -20 -40 14 -11 19 -12 33 -4 54 8 24 16 28 51 31 53 4 85 -13 175
-91 123 -107 210 -175 275 -213 35 -20 63 -39 63 -41 0 -2 -4 -13 -10 -23 -13
-25 -2 -50 28 -61 23 -9 24 -10 8 -28 -20 -22 -15 -26 40 -36 37 -6 44 -3 58
17 22 31 21 35 -19 48 -19 6 -34 14 -34 18 4 29 -2 34 -21 17 -16 -14 -23 -16
-32 -7 -9 9 -8 16 5 29 15 15 23 16 75 5 32 -7 84 -12 115 -12 l58 0 -53 -43
c-109 -89 -132 -177 -47 -177 37 0 47 18 12 22 -38 4 -39 21 -4 60 42 48 241
186 301 209 28 10 50 18 50 16 0 -1 -14 -29 -30 -61 -17 -32 -30 -70 -30 -83
0 -47 27 -90 73 -117 43 -25 45 -29 40 -64 -4 -31 0 -42 23 -65 32 -32 44 -23
44 33 0 25 -6 39 -21 48 -16 10 -18 17 -10 25 17 17 13 25 -19 32 -44 10 -78
42 -86 81 -8 44 32 130 82 173 77 68 203 111 326 111 81 0 91 -11 77 -83 -11
-62 -99 -256 -126 -278 -20 -17 -42 -4 -36 22 5 19 3 21 -16 16 -17 -4 -24 1
-36 29 -14 35 -62 64 -104 64 -19 0 -19 -3 -9 -27 26 -60 47 -80 88 -87 26 -4
40 -11 40 -21 0 -9 7 -18 15 -21 22 -9 18 -21 -9 -28 -24 -6 -31 -16 -46 -68
-7 -23 -5 -28 8 -28 31 0 82 38 82 61 0 12 21 44 46 71 25 26 52 65 60 86 49
124 64 141 64 72 0 -60 24 -100 59 -100 16 0 34 7 41 15 11 13 9 20 -10 40
-29 31 -44 32 -37 2 6 -21 6 -21 -8 -3 -35 47 2 204 59 254 38 33 118 56 175
50 31 -3 38 -9 69 -68 104 -195 104 -259 -1 -215 -126 53 -188 205 -84 205 28
0 29 -2 23 -31 -7 -39 15 -35 29 5 8 24 6 31 -14 47 -34 27 -68 24 -103 -11
-27 -27 -29 -34 -23 -73 8 -49 23 -74 78 -134 22 -23 35 -43 30 -43 -5 0 -18
-16 -29 -35 -20 -38 -42 -51 -58 -35 -19 19 -61 10 -99 -21 -20 -17 -37 -34
-37 -38 0 -13 86 -34 108 -27 11 4 28 18 37 32 l16 25 24 -48 c22 -43 23 -49
8 -65 -11 -12 -14 -28 -10 -54 7 -43 9 -46 30 -39 27 11 46 63 34 96 -9 23 -8
31 4 41 24 19 30 45 12 52 -10 4 -17 -1 -20 -14 -6 -24 -26 -21 -31 4 -6 30 7
65 29 77 34 18 119 13 140 -8 29 -29 42 -148 36 -318 -7 -170 -25 -285 -62
-398 -66 -202 -148 -312 -313 -418 -53 -34 -112 -74 -131 -88 -29 -22 -31 -26
-15 -32 11 -4 77 -5 147 -3 147 6 194 0 176 -22 -6 -8 -9 -17 -6 -21 14 -14
139 -1 260 28 125 29 136 30 296 25 91 -3 190 -10 220 -16 55 -10 151 -14 151
-5 0 3 -16 26 -36 52 -79 104 -164 304 -218 518 -37 146 -47 382 -21 515 61
313 56 306 172 297 101 -7 161 -29 218 -79 48 -43 78 -91 88 -145 5 -26 3 -33
-9 -33 -8 0 -17 7 -20 15 -5 12 -9 13 -20 4 -11 -9 -19 -6 -38 14 -20 22 -29
25 -67 20 -74 -9 -78 -16 -36 -58 33 -33 41 -36 70 -30 17 4 53 6 79 6 64 -2
82 17 76 81 -3 26 -4 48 -2 48 2 0 27 -21 56 -47 86 -76 135 -103 189 -103 41
0 51 4 72 31 l24 31 17 -23 c9 -13 16 -29 16 -36 0 -23 45 -41 117 -46 l72 -4
-19 37 c-10 20 -35 51 -56 69 -29 26 -42 31 -63 26 -49 -13 -102 -17 -100 -9
6 37 -28 84 -62 84 -27 0 -36 -28 -14 -48 17 -16 17 -16 12 6 -7 31 13 24 33
-11 21 -38 4 -61 -46 -65 -46 -3 -60 6 -195 126 -52 46 -120 100 -152 119 -53
33 -57 39 -52 64 5 22 1 31 -20 45 -24 16 -27 16 -45 -1 -29 -26 -25 -35 11
-25 26 8 30 6 27 -8 -4 -19 -21 -20 -120 -7 l-56 8 136 67 c76 37 166 89 201
115 93 69 155 95 223 95 31 0 68 -4 81 -9 37 -14 148 -122 164 -158 16 -39 17
-73 2 -73 -5 0 -9 8 -7 18 1 9 -2 19 -7 22 -13 7 -37 -44 -29 -64 7 -18 46
-21 75 -5 19 10 20 8 14 -33 -8 -53 15 -87 78 -119 23 -12 50 -29 61 -38 18
-15 18 -13 14 61 -4 98 -26 132 -85 136 -44 3 -45 5 -86 109 -14 35 -19 60
-13 56 6 -3 38 -25 71 -48 84 -59 139 -85 178 -85 62 0 90 64 42 96 -20 13
-25 25 -25 58 0 49 -22 74 -84 100 -21 9 -40 16 -42 16 -10 0 -2 -74 10 -105
16 -37 42 -55 80 -55 28 0 42 -15 25 -26 -8 -4 -4 -11 12 -20 l24 -12 -26 -12
c-32 -15 -50 -6 -196 92 -101 69 -144 111 -157 154 -5 17 0 26 26 42 41 25
177 80 243 98 75 21 109 17 194 -20 105 -46 178 -60 272 -51 86 7 119 -3 119
-35 0 -24 -22 -26 -40 -5 -17 20 -30 19 -30 -3 0 -26 20 -42 51 -42 37 0 61
33 48 67 -5 13 -9 26 -9 28 0 2 17 9 38 15 20 7 77 32 125 56 83 42 89 44 116
29 88 -45 130 -187 72 -239 -16 -14 -23 -15 -41 -6 -21 11 -21 12 -4 31 22 25
15 31 -16 16 -34 -17 -33 -57 1 -76 64 -36 119 25 119 132 l0 65 35 12 c66 22
102 103 51 116 -32 8 -58 -7 -46 -26 7 -11 11 -11 24 -1 13 11 16 11 16 -1 0
-22 -36 -50 -64 -50 -27 0 -106 56 -106 75 0 19 174 127 230 144 83 24 151
-12 136 -72 -8 -31 -33 -55 -57 -55 -16 0 -19 5 -14 20 5 15 3 18 -9 14 -23
-9 -27 -31 -8 -52 40 -45 122 23 122 101 0 25 -8 44 -29 66 -42 45 -44 66 -10
100 38 39 42 94 9 141 -9 14 -27 44 -39 68 -26 51 -34 48 -75 -28 -33 -61 -37
-121 -9 -159 11 -14 29 -27 41 -29 14 -2 19 -8 15 -18 -3 -8 -1 -20 5 -27 8
-9 -2 -12 -43 -13 -59 -2 -141 -35 -238 -97 -30 -19 -69 -43 -87 -52 l-33 -17
22 35 c30 48 28 111 -3 142 l-24 24 25 26 c14 14 29 25 33 25 20 0 29 61 15
107 -7 27 -15 59 -17 73 -4 24 -5 24 -50 -21 -25 -26 -48 -59 -52 -74 -7 -29
9 -85 25 -85 5 0 9 -11 9 -25 0 -20 -5 -25 -24 -25 -35 0 -52 -25 -38 -55 15
-32 32 -32 32 0 0 27 18 33 38 13 21 -21 13 -49 -34 -120 -71 -106 -181 -168
-299 -168 -46 0 -60 5 -87 29 l-32 28 40 19 c21 10 60 40 87 66 36 36 47 43
47 28 0 -10 16 -35 35 -56 45 -48 60 -36 60 47 0 64 -1 63 63 71 23 3 23 3 -7
36 -24 26 -37 32 -70 32 -29 0 -41 -4 -41 -14 0 -8 -3 -17 -7 -19 -5 -3 -8 23
-8 57 0 73 -17 111 -54 124 -36 12 -71 -5 -71 -34 0 -30 20 -42 27 -15 8 32
39 25 57 -13 57 -121 -58 -254 -261 -300 -84 -19 -183 -21 -183 -5 0 23 62
118 96 148 39 35 52 38 61 16 8 -22 -4 -30 -22 -15 -18 15 -30 7 -21 -15 16
-42 66 -23 66 26 0 21 -7 32 -27 42 l-27 15 31 6 c17 4 39 16 48 26 17 19 35
120 21 120 -17 0 -86 -42 -95 -58 -5 -9 -9 -37 -9 -62 -1 -27 -6 -46 -14 -49
-22 -7 -79 -73 -122 -140 -27 -42 -50 -67 -66 -72 -14 -3 -50 -12 -80 -19 -30
-7 -131 -43 -224 -81 -93 -38 -173 -69 -178 -69 -4 0 5 19 22 42 66 91 12 206
-79 168 -26 -10 -32 -9 -51 10 -17 17 -28 20 -53 15 -48 -10 -52 -21 -21 -50
23 -22 34 -25 64 -20 27 5 40 2 50 -9 18 -23 30 -20 30 9 0 36 24 31 45 -8 23
-43 14 -80 -26 -118 -34 -32 -120 -63 -147 -55 -33 11 -94 79 -120 135 -36 79
-35 149 3 225 37 75 87 129 109 120 20 -8 21 -34 1 -34 -22 0 -18 -18 5 -25
28 -9 40 2 40 35 0 20 -8 35 -25 46 -33 21 -70 12 -114 -29 l-34 -32 8 55 c4
30 9 109 11 175 l3 120 41 12 c59 17 67 27 81 91 6 31 14 62 16 70 4 9 -9 7
-47 -7 -77 -30 -90 -44 -90 -108 0 -29 -3 -53 -6 -53 -3 0 -15 11 -25 25 -11
13 -35 27 -55 31 -28 5 -42 1 -72 -20 l-37 -26 -6 30 c-9 45 -34 67 -82 74
-23 3 -52 9 -64 12 -22 6 -22 6 -7 -38 8 -25 28 -58 44 -73 28 -27 36 -28 90
-14 11 3 16 -7 18 -43 3 -44 5 -48 28 -48 13 0 27 7 31 15 8 22 -4 30 -22 15
-24 -20 -20 22 6 54 41 52 103 20 115 -60 4 -28 -3 -91 -20 -185 -15 -79 -29
-196 -33 -260 l-6 -118 -31 -3 c-30 -3 -31 -5 -31 -48 0 -37 -3 -45 -20 -48
-67 -10 -78 -21 -111 -114 l-14 -41 42 7 c23 4 57 16 74 27 27 16 34 29 40 65
5 36 12 48 35 60 34 17 37 34 9 41 -11 3 -20 12 -20 19 0 12 4 12 28 0 34 -18
102 -139 102 -181 0 -37 -63 -95 -152 -140 -91 -45 -162 -60 -214 -43 -34 11
-40 19 -49 53 -5 22 -19 58 -29 80 -19 39 -19 49 -6 305 8 146 14 376 13 511
l-1 247 72 20 c111 33 180 42 305 42 281 -1 431 -95 457 -288 8 -61 -4 -82
-47 -82 -33 0 -36 6 -12 32 24 27 12 30 -26 7 -40 -24 -40 -59 0 -73 38 -13
77 0 117 40 34 34 35 37 29 95 l-5 60 92 -88 c103 -98 157 -139 213 -159 79
-28 160 -11 201 41 17 21 22 41 22 83 l0 56 29 -29 c25 -23 36 -27 63 -22 34
5 127 56 128 69 0 4 -17 19 -37 33 -27 18 -51 25 -86 25 -43 0 -50 -3 -65 -29
-22 -40 -52 -53 -77 -35 -26 19 -48 17 -65 -5 -16 -23 -30 -18 -30 8 0 25 -29
49 -81 64 l-45 14 2 -46 c1 -25 5 -54 9 -63 6 -16 102 -78 119 -78 3 0 6 11 6
25 0 16 6 25 16 25 9 0 18 9 21 20 11 43 63 9 63 -41 0 -44 -42 -79 -94 -79
-56 0 -134 40 -188 96 -24 25 -78 81 -121 124 l-79 79 29 7 c15 3 66 17 113
30 132 36 171 39 199 17 23 -19 23 -20 6 -46 -19 -30 -62 -37 -71 -12 -8 21
-24 19 -24 -4 0 -67 134 -54 161 16 7 18 14 23 27 18 65 -25 178 -45 263 -45
89 0 100 2 166 35 81 40 82 40 107 22 15 -11 17 -17 7 -35 -13 -25 0 -30 19
-8 20 25 8 60 -26 77 -27 13 -30 18 -19 32 7 9 22 17 34 17 57 0 111 59 111
121 0 20 -29 127 -37 139 -2 2 -14 -7 -26 -21 -12 -13 -45 -41 -73 -62 -70
-50 -83 -83 -55 -139 16 -32 18 -45 9 -56 -9 -10 -8 -16 3 -23 11 -7 9 -9 -8
-9 -18 0 -23 6 -23 24 0 45 -89 79 -104 40 -11 -27 -7 -35 13 -23 30 20 53 4
49 -33 -4 -48 -41 -62 -158 -62 -110 1 -154 11 -265 64 -44 20 -95 41 -113 45
l-34 7 31 19 c87 53 225 200 344 366 111 156 142 191 194 217 42 21 60 20 73
-3 17 -32 2 -54 -33 -47 -29 6 -29 5 -14 -17 23 -35 59 -29 80 15 l18 37 42
-30 c34 -25 50 -30 84 -27 33 2 43 -1 47 -14 2 -11 14 -18 30 -18 19 0 26 -5
26 -19 0 -33 47 -61 103 -61 65 0 199 58 170 73 -10 5 -48 27 -86 49 -58 35
-73 40 -108 35 -23 -3 -51 -15 -63 -26 -12 -12 -32 -21 -44 -21 -23 0 -30 14
-12 25 17 11 11 61 -9 79 -15 14 -26 16 -45 10 -34 -12 -33 -29 1 -29 36 0 43
-31 11 -45 -31 -14 -65 -1 -115 43 -84 75 -124 77 -214 6 l-37 -29 12 33 c23
69 94 174 161 242 81 82 187 143 264 152 46 5 52 3 80 -25 17 -17 31 -40 31
-51 0 -22 -35 -51 -62 -51 -23 0 -23 -21 0 -27 26 -6 43 -57 31 -93 -22 -62
44 -122 151 -136 49 -6 53 -6 46 11 -4 10 -11 39 -17 64 -20 97 -43 121 -112
121 -18 0 -40 7 -50 14 -16 13 -16 14 7 29 34 23 52 79 36 117 -14 34 -59 64
-108 75 -32 7 -33 8 -16 26 9 10 23 19 31 19 8 0 25 11 38 25 22 22 25 32 25
105 l0 81 -31 -16 c-16 -9 -48 -32 -70 -52 -32 -29 -39 -42 -39 -73 0 -21 6
-43 14 -49 7 -6 11 -22 9 -35 -4 -19 -15 -27 -49 -35 -57 -14 -135 -51 -204
-95 l-55 -35 -11 52 c-17 85 -51 127 -102 127 -32 0 -79 -26 -93 -51 -9 -18
-7 -26 15 -48 l26 -26 0 44 0 44 33 -7 c42 -8 57 -30 57 -84 0 -63 -23 -142
-86 -299 -74 -184 -146 -329 -187 -378 l-34 -39 5 76 c4 69 2 81 -21 120 -35
60 -60 151 -52 189 8 36 46 63 75 54 26 -8 26 -22 0 -30 -32 -10 -23 -27 13
-23 26 2 33 8 35 30 8 72 -129 79 -158 7 -12 -28 -9 -123 5 -181 7 -24 4 -28
-32 -37 -59 -16 -97 -62 -98 -116 -1 -37 -7 -51 -36 -80 -19 -19 -39 -35 -45
-35 -27 0 -44 -37 -44 -97 0 -55 2 -61 19 -56 10 2 35 18 55 35 30 24 36 36
36 67 0 27 7 46 25 65 26 28 32 30 88 17 41 -10 47 -3 17 24 -12 11 -20 31
-20 50 0 21 -6 35 -16 39 -25 10 -27 8 -19 -21 6 -26 5 -27 -10 -12 -40 39 14
85 83 71 37 -8 37 -8 40 -60 4 -69 -15 -99 -125 -201 -98 -91 -172 -134 -264
-155 -73 -17 -193 -23 -226 -12 l-23 7 26 35 c25 33 26 35 10 53 -33 37 -106
31 -106 -9 0 -24 4 -24 33 -6 12 8 30 11 40 7 16 -6 16 -9 -8 -31 -22 -21 -36
-25 -83 -23 -31 0 -84 11 -117 23 -58 21 -113 28 -382 46 -78 5 -103 10 -103
21 0 36 57 106 108 132 12 7 51 15 87 20 63 7 66 7 71 -16 4 -13 3 -39 -1 -59
l-6 -36 25 19 c20 14 25 26 24 56 -1 20 -5 37 -10 37 -4 0 -8 7 -8 15 0 17 26
21 32 5 4 -12 78 7 78 20 0 5 -9 12 -20 15 l-20 6 20 26 c15 20 20 41 20 89 0
35 -3 64 -6 64 -10 0 -88 -57 -107 -78 -25 -28 -28 -85 -4 -90 10 -2 17 3 17
11 0 8 7 18 16 21 14 5 15 4 4 -9 -7 -8 -10 -24 -7 -35 4 -15 0 -20 -16 -20
-11 0 -35 -5 -53 -12 -26 -9 -39 -8 -73 5 -23 10 -43 17 -45 17 -2 0 -9 -13
-15 -30 -14 -41 -28 -38 -36 10 -7 44 -43 80 -80 80 -31 0 -50 -23 -32 -39 8
-6 16 -9 19 -6 2 3 5 -1 5 -8 0 -6 -10 -22 -22 -35 l-21 -22 -15 107 -16 108
39 37 c92 90 220 168 313 193 76 20 192 21 238 1 20 -8 46 -31 59 -50 30 -47
42 -45 34 4 -4 28 -3 40 6 40 22 0 97 -89 110 -131 l12 -42 -43 -39 -44 -38
30 0 c50 0 103 70 103 135 0 38 43 35 60 -4 29 -71 129 -76 229 -11 66 43 81
60 53 60 -11 0 -46 14 -78 31 -32 18 -71 35 -86 40 -40 11 -95 -8 -120 -41
-29 -40 -62 -39 -96 1 -14 18 -44 45 -66 60 -21 16 -34 29 -27 29 13 0 101 78
101 90 0 8 -29 14 -122 26 -63 9 -102 -14 -96 -56 4 -26 2 -27 -21 -20 -14 5
-32 10 -40 12 -19 5 120 97 188 124 31 13 114 34 184 48 125 25 208 53 221 75
4 6 19 11 33 11 37 0 144 41 140 53 -2 6 -25 26 -51 44 -63 43 -127 46 -152 8
-9 -14 -26 -25 -37 -25 -19 0 -18 -3 12 -34 l32 -33 -41 -17 c-22 -9 -51 -16
-64 -16 -88 0 -74 60 52 224 25 33 72 97 104 144 32 47 58 80 58 72 0 -7 -8
-22 -17 -33 -17 -19 -17 -19 7 -12 33 10 31 10 65 -4 58 -24 114 15 152 107
l21 50 -76 -5 c-43 -3 -85 -10 -94 -15 -22 -11 -22 -10 2 43 24 53 26 106 5
129 -14 16 -14 23 5 71 11 30 20 65 20 79 0 35 -39 89 -92 127 l-45 32 -8 -72
c-5 -40 -8 -85 -8 -100 0 -32 34 -73 69 -81 32 -8 30 -24 -3 -32 -29 -7 -63
-31 -63 -45 0 -5 12 -4 26 1 14 6 34 10 45 10 25 0 25 -41 -1 -99 -30 -66
-206 -309 -267 -369 -85 -82 -132 -106 -103 -52 7 13 14 57 17 99 7 111 -18
155 -123 217 -16 9 -18 23 -18 85 1 98 29 162 99 229 76 71 134 89 168 52 34
-37 8 -112 -28 -82 -21 18 -39 9 -23 -13 21 -28 64 -31 88 -5 52 57 3 158 -77
158 -48 0 -123 -37 -183 -89 l-44 -39 -38 34 c-21 19 -45 34 -53 34 -10 0 -7
7 9 25 14 15 34 25 50 25 36 0 73 39 82 85 6 33 -13 185 -23 185 -6 0 -84 -65
-124 -102 -24 -21 -29 -35 -29 -70 1 -24 7 -54 14 -67 21 -38 0 -81 -40 -81
-58 0 -86 -67 -44 -105 16 -15 22 -15 35 -5 20 17 19 27 -5 33 -26 7 -26 23 1
37 16 9 28 9 50 -1 63 -26 72 -78 41 -233 -12 -58 -24 -91 -35 -98 -25 -14
-20 -26 8 -21 13 3 47 0 74 -7 200 -48 141 -351 -102 -524 -116 -82 -259 -143
-317 -134 -16 2 -27 16 -41 53 -24 63 -26 93 -4 75 8 -7 21 -24 28 -38 17 -37
54 -54 105 -49 69 7 73 20 22 73 l-45 45 -61 -6 -61 -6 3 28 c2 15 11 93 19
172 19 171 27 195 73 199 31 3 33 2 22 -18 -15 -28 -6 -36 25 -22 29 14 32 38
8 65 -10 10 -22 43 -28 72 l-10 54 -40 -28 c-32 -21 -41 -34 -43 -61 -4 -53
-11 -80 -22 -80 -6 0 -10 9 -10 19 0 37 -37 51 -139 51 l-94 0 19 21 c10 12
39 35 64 51 54 36 128 115 136 144 10 37 0 66 -29 88 -33 25 -64 12 -59 -25 4
-32 12 -37 27 -16 13 18 14 18 25 -3 16 -29 -2 -55 -91 -127 -156 -126 -187
-146 -250 -158 -34 -6 -37 -4 -52 27 -32 67 -50 324 -28 404 6 21 38 73 71
114 63 79 80 125 61 166 -12 27 -46 32 -55 8 -9 -23 -8 -24 15 -24 19 0 21 -4
15 -32 -6 -31 -32 -68 -47 -68 -4 0 -10 35 -13 78 -8 111 -23 179 -47 226 -24
48 -72 101 -113 127 l-30 18 30 11 c16 6 35 13 42 15 16 6 37 57 45 108 6 36
5 38 -16 31 -87 -27 -107 -48 -107 -113 l0 -49 -37 14 c-51 18 -94 17 -120 -1
-28 -20 -38 -3 -13 20 11 10 20 31 20 46 0 31 -29 99 -42 99 -4 0 -15 -14 -24
-31z m26 -109 c0 -5 -5 -10 -11 -10 -5 0 -7 5 -4 10 3 6 8 10 11 10 2 0 4 -4
4 -10z m1265 -492 c-10 -13 -14 -16 -11 -8 3 8 9 24 13 35 4 11 8 14 11 7 2
-6 -4 -22 -13 -34z m-2141 -574 c3 -8 2 -12 -4 -9 -6 3 -10 10 -10 16 0 14 7
11 14 -7z m26 -39 c0 -8 -2 -15 -4 -15 -2 0 -6 7 -10 15 -3 8 -1 15 4 15 6 0
10 -7 10 -15z m1574 -1 c23 -22 20 -37 -5 -24 -33 18 -37 1 -6 -26 l28 -24 26
20 c14 11 32 20 39 20 17 0 17 3 3 -40 -6 -19 -15 -83 -19 -142 -4 -59 -11
-112 -15 -118 -4 -6 -24 24 -46 67 -21 42 -44 80 -49 83 -6 3 4 16 21 29 25
19 30 27 24 49 -3 15 -10 31 -15 36 -13 13 -47 -20 -62 -60 -7 -21 -22 -38
-40 -45 -62 -26 -49 -82 22 -95 l35 -7 -24 27 c-17 18 -22 29 -14 37 15 15 71
-55 84 -106 19 -67 15 -234 -5 -273 -24 -46 -84 -103 -136 -129 l-44 -22 -29
82 c-135 377 -140 513 -25 598 99 73 214 102 252 63z m511 -584 c-3 -5 -11
-10 -16 -10 -6 0 -7 5 -4 10 3 6 11 10 16 10 6 0 7 -4 4 -10z m1570 -300 c-3
-5 -12 -10 -18 -10 -7 0 -6 4 3 10 19 12 23 12 15 0z m-266 -464 c-8 -17 -15
-22 -20 -15 -3 6 1 19 10 29 21 22 24 18 10 -14z m-3319 -162 c0 -8 -7 -14
-15 -14 -15 0 -21 21 -9 33 10 9 24 -2 24 -19z m3861 -404 c6 0 7 -5 3 -11
-11 -18 -24 12 -22 51 l1 35 4 -37 c2 -21 9 -38 14 -38z m-3604 -616 c-3 -3
-12 -4 -19 -1 -8 3 -5 6 6 6 11 1 17 -2 13 -5z"/>
<path d="M3613 4288 c-28 -14 -36 -37 -27 -83 7 -40 11 -41 40 -17 35 28 46
57 32 86 -12 29 -14 29 -45 14z"/>
<path d="M3466 5746 c-20 -18 -36 -41 -36 -50 0 -12 -10 -16 -40 -16 -28 0
-40 -4 -40 -14 0 -18 22 -26 49 -19 15 4 22 -1 27 -21 3 -14 20 -38 36 -52 27
-22 30 -28 19 -50 -20 -44 -13 -81 20 -115 29 -30 31 -30 44 -13 8 11 19 32
26 47 10 24 9 32 -10 58 l-22 29 24 0 c13 0 60 18 106 40 45 22 101 43 123 47
l41 6 -24 20 c-13 10 -44 37 -69 58 -65 57 -116 79 -182 79 -50 0 -60 -4 -92
-34z m94 -76 c0 -5 -13 -10 -30 -10 -16 0 -30 -5 -30 -11 0 -8 -6 -7 -17 2
-15 13 -13 15 18 20 53 10 59 10 59 -1z m58 -17 c-10 -2 -26 -2 -35 0 -10 3
-2 5 17 5 19 0 27 -2 18 -5z"/>
<path d="M2730 5737 c-30 -11 -69 -30 -87 -43 -40 -30 -61 -90 -44 -123 9 -15
9 -27 1 -41 -11 -21 -6 -40 11 -40 5 0 9 6 9 14 0 9 16 16 45 20 57 9 91 48
100 114 4 26 11 62 17 80 5 18 8 35 6 36 -1 1 -28 -6 -58 -17z"/>
<path d="M2883 5607 c9 -105 28 -157 74 -198 28 -24 43 -30 74 -28 29 3 44 -3
64 -21 28 -27 46 -19 26 11 -8 14 -10 35 -6 60 13 79 -26 136 -125 183 -30 14
-68 38 -84 53 l-29 27 6 -87z m147 -142 c7 -8 16 -12 21 -9 5 3 9 -5 9 -18 l0
-22 -15 21 c-9 13 -23 27 -33 32 -9 6 -12 11 -6 11 6 0 17 -7 24 -15z"/>
<path d="M2457 5643 c-10 -10 -8 -53 4 -96 9 -32 18 -42 57 -60 26 -11 50 -23
53 -24 3 -2 6 19 7 47 1 39 -4 56 -21 74 -28 30 -92 68 -100 59z"/>
<path d="M3984 5587 c10 -78 44 -138 89 -161 29 -14 44 -16 61 -8 16 7 27 6
41 -4 10 -8 25 -14 34 -14 11 0 10 5 -6 23 -15 16 -19 31 -16 58 6 47 -32 94
-90 110 -23 6 -59 19 -81 30 l-38 18 6 -52z m121 -87 c3 -5 1 -10 -4 -10 -6 0
-11 5 -11 10 0 6 2 10 4 10 3 0 8 -4 11 -10z m35 -30 c0 -5 -2 -10 -4 -10 -3
0 -8 5 -11 10 -3 6 -1 10 4 10 6 0 11 -4 11 -10z"/>
<path d="M3664 5496 c-42 -18 -64 -52 -64 -97 0 -20 -7 -42 -15 -49 -17 -14
-20 -40 -6 -40 6 0 13 5 16 10 4 6 25 8 53 4 62 -8 89 14 140 111 l39 75 -66
0 c-36 -1 -80 -7 -97 -14z"/>
<path d="M2197 5401 c-2 -32 -1 -77 3 -101 10 -52 55 -101 97 -104 16 -2 40
-13 53 -26 26 -26 38 -14 20 19 -8 16 -8 27 1 42 13 26 6 93 -12 115 -7 9 -36
31 -64 48 -27 18 -56 40 -64 49 -22 27 -28 20 -34 -42z"/>
<path d="M4769 5420 c-80 -41 -112 -97 -86 -149 9 -18 11 -34 6 -42 -5 -8 -9
-20 -9 -28 0 -12 3 -11 18 1 9 9 31 19 47 22 61 14 95 62 95 136 0 21 4 50 10
64 13 35 -8 34 -81 -4z"/>
<path d="M4460 5352 c8 -83 52 -142 99 -129 9 2 22 -2 29 -10 7 -7 20 -13 28
-13 11 0 12 4 4 19 -5 11 -10 37 -10 59 0 45 -21 69 -95 107 -28 14 -52 25
-55 25 -3 0 -3 -26 0 -58z"/>
<path d="M4030 5351 c0 -5 4 -12 9 -15 5 -3 17 -35 26 -71 23 -82 56 -115 119
-115 23 0 47 -5 54 -12 19 -19 26 -1 10 24 -11 16 -13 30 -7 46 20 52 -26 112
-99 131 -71 18 -112 22 -112 12z"/>
<path d="M3830 5285 c-19 -24 -40 -59 -46 -77 -13 -37 -2 -87 21 -101 8 -4 15
-19 15 -32 0 -18 5 -25 20 -25 12 0 20 7 20 16 0 8 14 29 30 46 17 16 30 39
30 51 0 26 -42 167 -50 167 -3 -1 -21 -21 -40 -45z"/>
<path d="M2966 5260 c-25 -24 -46 -46 -46 -50 0 -12 75 -30 124 -30 42 0 48 3
70 39 14 22 30 42 36 46 18 11 11 22 -17 23 -16 1 -49 4 -75 8 -44 6 -49 4
-92 -36z"/>
<path d="M2832 5224 c-31 -26 -42 -43 -42 -64 0 -16 5 -32 10 -35 6 -4 8 -15
5 -26 -8 -25 -3 -24 45 6 40 25 40 25 40 90 0 36 -4 65 -8 65 -5 0 -27 -16
-50 -36z"/>
<path d="M1694 5143 c7 -93 30 -141 79 -168 29 -16 40 -18 55 -9 15 10 21 8
30 -7 7 -10 19 -19 27 -19 17 0 20 16 5 25 -6 4 -8 27 -4 58 6 47 3 56 -20 84
-14 17 -55 45 -91 63 -36 18 -65 36 -65 41 0 5 -5 9 -11 9 -9 0 -10 -22 -5
-77z m110 -88 c3 -8 1 -15 -4 -15 -6 0 -10 7 -10 15 0 8 2 15 4 15 2 0 6 -7
10 -15z m36 -40 c0 -8 -2 -15 -4 -15 -2 0 -6 7 -10 15 -3 8 -1 15 4 15 6 0 10
-7 10 -15z"/>
<path d="M2040 5194 c-30 -14 -67 -37 -82 -51 -33 -32 -46 -85 -28 -119 11
-20 11 -28 0 -49 -17 -32 -7 -43 17 -16 9 12 27 21 40 21 32 0 71 20 87 45 8
12 18 51 21 86 4 35 14 74 21 87 13 20 13 22 -3 22 -10 0 -43 -12 -73 -26z"/>
<path d="M2922 5117 c-12 -13 -22 -28 -22 -34 0 -6 -7 -13 -15 -17 -21 -8 -19
-28 3 -25 9 1 31 -3 47 -10 36 -15 74 1 125 54 l32 33 -33 11 c-55 19 -113 14
-137 -12z"/>
<path d="M5225 5129 c-11 -4 -43 -8 -71 -8 -43 -1 -57 -6 -83 -30 -17 -16 -32
-37 -33 -48 0 -10 -2 -23 -2 -30 -1 -6 -10 -21 -20 -32 -24 -27 -17 -35 19
-21 20 7 31 8 39 0 17 -17 72 -11 100 11 28 22 49 58 71 120 15 42 11 51 -20
38z"/>
<path d="M3643 5074 c17 -56 66 -103 99 -97 38 7 47 22 36 60 -10 37 -41 57
-105 68 l-42 7 12 -38z"/>
<path d="M3926 5040 c-42 -27 -47 -34 -44 -62 2 -25 9 -34 32 -41 41 -14 66
18 66 84 0 27 -1 49 -3 49 -2 0 -24 -14 -51 -30z"/>
<path d="M3200 5008 c0 -59 18 -89 67 -115 l41 -21 6 39 c4 22 2 48 -4 58 -12
23 -83 81 -99 81 -6 0 -11 -18 -11 -42z"/>
<path d="M1517 4937 c-16 -163 31 -267 122 -267 20 0 43 5 51 10 11 7 22 2 41
-16 24 -23 27 -23 40 -8 12 15 11 19 -8 31 -19 13 -20 16 -7 41 20 38 17 101
-5 138 -16 26 -35 37 -100 59 -44 14 -91 35 -104 45 l-25 19 -5 -52z m139
-147 c15 -22 30 -37 35 -34 5 3 9 -4 9 -15 0 -19 -2 -18 -27 5 -16 14 -27 29
-26 32 1 4 -5 17 -13 30 -8 12 -12 22 -9 22 2 0 17 -18 31 -40z"/>
<path d="M3608 4924 c-24 -25 -44 -49 -46 -54 -4 -11 63 -30 109 -30 50 0 87
38 80 83 0 4 5 7 11 7 7 0 -4 9 -25 20 -57 31 -80 26 -129 -26z"/>
<path d="M3901 4891 c-10 -6 -10 -13 -3 -28 19 -35 40 -46 77 -39 42 8 43 13
10 49 -26 27 -58 34 -84 18z"/>
<path d="M4697 4876 c-83 -34 -118 -66 -137 -123 -9 -26 -8 -39 4 -64 12 -23
13 -36 4 -55 -14 -30 -4 -42 19 -22 10 9 34 19 53 23 75 16 97 48 110 160 4
38 11 78 15 88 9 22 2 21 -68 -7z"/>
<path d="M4060 4858 c0 -3 6 -21 14 -39 32 -76 83 -112 127 -89 15 9 24 8 35
-1 23 -19 28 -3 10 35 -9 19 -16 39 -16 45 0 20 -47 41 -108 47 -34 4 -62 5
-62 2z"/>
<path d="M3444 4824 c21 -83 48 -109 122 -117 l41 -5 -14 42 c-19 54 -35 70
-84 85 -23 7 -48 15 -57 18 -12 5 -14 1 -8 -23z"/>
<path d="M3213 4816 l-28 -24 28 -11 c45 -18 65 -13 81 18 9 16 12 31 9 35
-14 14 -64 4 -90 -18z"/>
<path d="M5320 4793 c0 -17 -11 -56 -25 -87 -33 -74 -32 -116 2 -156 14 -17
37 -36 50 -41 16 -6 23 -16 23 -34 0 -15 6 -25 14 -25 17 0 28 24 20 45 -4 10
3 18 20 25 14 5 33 25 42 43 29 60 -4 131 -103 221 l-43 39 0 -30z"/>
<path d="M3160 4723 c2 -95 39 -163 91 -163 14 0 32 -7 39 -15 17 -21 34 -19
25 3 -4 9 -7 34 -6 55 2 32 -4 44 -32 70 -19 18 -53 42 -76 55 l-41 23 0 -28z"/>
<path d="M2420 4660 c-42 -10 -70 -42 -70 -81 0 -24 4 -29 26 -29 41 0 64 18
85 67 10 24 19 47 19 49 0 5 -18 4 -60 -6z"/>
<path d="M2808 4611 c-26 -16 -51 -39 -57 -50 -13 -23 -15 -78 -3 -85 5 -3 7
-20 4 -38 l-5 -33 25 23 c13 12 29 22 34 22 6 0 21 11 33 24 19 20 22 32 19
95 l-3 72 -47 -30z"/>
<path d="M4850 4616 c0 -8 4 -17 10 -21 6 -4 5 -14 -1 -29 -13 -28 0 -58 34
-80 23 -15 127 -37 127 -27 0 3 -9 33 -19 65 -21 69 -40 86 -93 86 -21 0 -38
5 -38 10 0 6 -4 10 -10 10 -5 0 -10 -6 -10 -14z"/>
<path d="M4310 4609 c0 -6 -12 -20 -26 -32 -26 -20 -26 -23 -20 -91 4 -38 9
-72 11 -75 3 -2 23 13 45 34 42 41 62 97 41 118 -6 6 -11 21 -11 34 0 16 -6
23 -20 23 -11 0 -20 -5 -20 -11z"/>
<path d="M1535 4580 c-16 -4 -49 -8 -73 -9 l-43 -1 18 -31 c28 -48 107 -116
145 -127 46 -13 84 -5 106 22 12 15 26 20 51 18 24 -3 32 0 29 10 -3 7 -14 14
-24 16 -13 2 -25 16 -33 38 -22 62 -89 86 -176 64z m135 -96 c0 -2 -13 -4 -30
-4 -16 0 -30 4 -30 8 0 5 14 7 30 4 17 -2 30 -6 30 -8z"/>
<path d="M5578 4507 c-4 -129 4 -148 74 -169 21 -6 38 -18 38 -25 0 -22 25 -9
26 13 1 10 9 36 18 56 26 59 -5 105 -106 161 l-48 26 -2 -62z"/>
<path d="M1210 4535 c-43 -113 -27 -195 40 -210 16 -3 30 -14 33 -26 3 -10 11
-19 17 -19 8 0 10 9 6 24 -4 15 0 28 9 36 9 8 15 30 15 56 0 43 -12 61 -101
158 -5 5 -13 -3 -19 -19z"/>
<path d="M4028 4535 c3 -5 21 -30 40 -54 l35 -43 64 5 c35 2 66 7 69 10 3 2
-16 25 -42 51 -47 45 -48 46 -110 43 -38 -1 -60 -6 -56 -12z"/>
<path d="M5150 4497 c0 -77 44 -137 101 -137 21 0 41 -4 44 -10 3 -5 10 -10
14 -10 10 0 -14 109 -26 121 -5 5 -37 20 -71 33 l-62 25 0 -22z"/>
<path d="M2968 4483 c-21 -8 -38 -19 -38 -23 0 -4 17 -19 38 -34 43 -29 93
-34 113 -10 7 9 22 19 32 23 15 6 12 11 -23 34 -47 31 -69 33 -122 10z"/>
<path d="M4003 4482 c0 -10 -10 -32 -23 -49 -23 -31 -23 -33 -6 -76 9 -24 33
-60 54 -80 l38 -37 18 70 c21 82 16 102 -35 153 -44 42 -48 44 -46 19z"/>
<path d="M2450 4435 c0 -15 30 -62 53 -84 23 -21 31 -22 86 -16 l60 7 -33 46
-33 47 -66 3 c-37 2 -67 0 -67 -3z"/>
<path d="M1612 4367 c-70 -72 -86 -166 -36 -206 13 -10 24 -26 24 -34 0 -8 7
-20 15 -27 13 -10 15 -9 15 9 0 12 13 33 29 47 44 36 47 70 16 161 -15 43 -28
79 -29 80 -1 2 -16 -12 -34 -30z"/>
<path d="M2134 4351 c-17 -4 -35 -11 -41 -14 -11 -7 -39 -95 -32 -101 9 -7 66
15 87 34 15 14 21 31 20 55 -1 19 -2 35 -2 34 -1 -1 -15 -4 -32 -8z"/>
<path d="M1869 4273 c-41 -37 -41 -37 -35 -93 l6 -55 -43 3 c-38 3 -48 0 -76
-28 -18 -18 -35 -45 -38 -61 -9 -47 -27 -54 -137 -54 -111 0 -137 9 -210 71
-50 43 -76 82 -76 115 0 35 31 61 67 57 25 -3 28 -7 26 -35 -2 -27 0 -30 17
-26 15 4 20 14 20 38 0 69 -86 90 -142 34 -28 -27 -30 -34 -24 -77 8 -58 40
-107 110 -167 l55 -48 -24 -29 c-59 -70 -36 -188 36 -188 37 0 68 42 49 65
-18 22 -30 18 -30 -10 0 -32 -27 -33 -41 -1 -16 34 1 76 41 104 35 23 114 29
227 16 45 -6 53 -10 64 -37 34 -82 159 -209 242 -245 15 -6 27 -16 27 -22 0
-6 10 -15 23 -20 12 -5 31 -17 43 -25 19 -14 21 -13 37 36 15 48 15 50 -1 35
-11 -9 -27 -13 -40 -9 -25 6 -27 13 -9 32 10 11 8 11 -10 2 -12 -6 -27 -11
-33 -11 -22 0 -182 175 -216 236 -20 36 -37 83 -41 111 -5 42 -2 53 19 77 41
48 100 35 113 -25 4 -16 10 -29 15 -29 15 0 22 38 10 60 -9 17 -8 20 8 20 10
0 27 -9 37 -20 29 -32 52 -33 126 -4 l70 28 -28 22 c-68 56 -124 67 -166 34
-14 -11 -32 -20 -40 -20 -9 0 -17 -7 -19 -15 -2 -11 -7 -12 -18 -4 -13 8 -11
12 10 27 53 37 60 49 60 112 0 33 -4 60 -10 60 -5 0 -28 -17 -51 -37z"/>
<path d="M2197 4205 c-48 -75 -49 -156 -2 -177 13 -6 25 -20 27 -31 4 -30 28
-34 28 -4 0 13 9 32 20 42 31 28 26 84 -13 154 l-33 59 -27 -43z"/>
<path d="M4759 4236 c-76 -40 -73 -32 -29 -73 36 -32 45 -35 81 -30 39 5 89
30 89 45 0 7 -69 50 -101 64 -9 3 -27 1 -40 -6z"/>
<path d="M5255 4207 c-11 -8 -46 -24 -78 -37 -74 -29 -92 -55 -84 -119 4 -30
1 -53 -5 -59 -18 -18 -1 -27 18 -11 10 8 36 14 60 14 50 1 89 31 102 79 9 31
16 146 10 146 -2 0 -12 -6 -23 -13z m-95 -151 c0 -3 -4 -8 -10 -11 -5 -3 -10
-1 -10 4 0 6 5 11 10 11 6 0 10 -2 10 -4z"/>
<path d="M4644 4155 c-21 -32 -13 -64 28 -104 29 -28 33 -30 40 -14 15 38 9
102 -12 123 -26 26 -36 25 -56 -5z"/>
<path d="M4860 4094 c6 -14 10 -39 10 -55 0 -49 25 -86 67 -99 21 -7 42 -16
48 -21 17 -17 20 -9 18 47 -2 76 -16 98 -80 129 -68 32 -75 32 -63 -1z"/>
<path d="M1095 4090 c-16 -4 -51 -8 -77 -9 -27 0 -48 -4 -48 -8 0 -13 73 -100
104 -124 18 -15 47 -24 80 -27 42 -3 54 -1 70 17 12 14 31 21 53 21 37 0 43
23 7 28 -13 2 -24 15 -30 34 -17 57 -88 88 -159 68z"/>
<path d="M5593 4028 c-6 -7 -13 -21 -16 -31 -4 -9 -17 -21 -29 -26 -22 -9 -22
-9 -3 -16 11 -3 33 -13 48 -21 55 -28 93 -19 144 34 l46 47 -49 12 c-67 15
-130 16 -141 1z"/>
<path d="M2535 3921 c-47 -6 -52 -9 -87 -61 -21 -30 -38 -58 -38 -62 0 -12
112 1 133 15 18 12 63 119 48 115 -3 0 -28 -4 -56 -7z"/>
<path d="M2612 3889 c-17 -26 -1 -77 33 -109 34 -32 48 -16 49 51 1 39 -3 54
-18 65 -28 20 -49 17 -64 -7z"/>
<path d="M3216 3829 c-39 -82 -35 -112 19 -165 44 -42 63 -55 50 -34 -4 6 3
25 14 44 28 44 26 73 -5 120 -15 21 -33 50 -40 64 l-13 26 -25 -55z"/>
<path d="M3927 3874 c-4 -4 -7 -15 -7 -25 0 -10 -11 -26 -25 -35 -16 -10 -25
-26 -26 -43 l0 -26 -12 25 c-6 14 -12 26 -13 28 -1 2 -18 -4 -38 -12 -33 -14
-36 -18 -36 -58 0 -70 11 -76 58 -31 l40 38 6 -27 c3 -15 22 -46 42 -68 l37
-41 25 58 c38 91 39 117 5 151 -16 16 -33 39 -39 51 -5 12 -13 19 -17 15z"/>
<path d="M1290 3850 c-9 -21 -19 -26 -52 -26 -65 -2 -96 -41 -114 -144 -8 -46
-19 -89 -25 -97 -35 -41 122 18 174 66 45 42 61 107 33 130 -14 12 -14 15 0
36 11 17 13 29 6 42 -9 16 -11 15 -22 -7z"/>
<path d="M3021 3794 c-17 -14 -31 -29 -31 -33 0 -8 59 -31 80 -31 7 0 34 12
58 26 l45 27 -34 18 c-47 25 -82 23 -118 -7z"/>
<path d="M4280 3813 c-36 -13 -53 -77 -30 -113 8 -12 16 -9 46 21 31 32 35 41
29 68 -6 30 -15 35 -45 24z"/>
<path d="M2008 3786 c-10 -7 -18 -23 -18 -34 0 -11 -7 -22 -15 -24 -14 -3 -14
-6 1 -26 l16 -24 27 25 c14 13 33 27 41 31 8 3 2 4 -14 1 -28 -6 -29 -5 -23
29 3 20 5 36 4 36 -1 0 -10 -7 -19 -14z"/>
<path d="M850 3658 c0 -115 42 -188 108 -188 19 0 45 -9 59 -20 32 -25 41 -19
19 11 -11 17 -12 27 -5 42 15 27 3 80 -25 110 -13 14 -43 35 -67 47 -24 12
-54 32 -66 43 l-23 20 0 -65z m140 -145 c0 -19 -4 -16 -30 19 l-23 31 26 -19
c15 -10 27 -25 27 -31z"/>
<path d="M5480 3705 c-7 -9 -29 -15 -50 -15 -56 0 -80 -34 -80 -112 l0 -59 73
38 72 38 1 63 c0 34 0 62 -1 62 -2 0 -8 -7 -15 -15z"/>
<path d="M2352 3691 c-16 -10 -1 -24 42 -41 16 -6 27 -13 24 -15 -2 -3 -23 3
-46 12 -23 9 -45 13 -48 10 -4 -3 2 -21 13 -39 19 -33 19 -33 106 -36 48 -1
87 1 87 6 0 13 -48 75 -73 94 -23 18 -83 24 -105 9z"/>
<path d="M5690 3681 c0 -10 -7 -21 -15 -25 -26 -10 -37 -53 -21 -89 11 -28 83
-96 90 -86 8 12 36 120 36 138 0 14 -12 29 -35 42 -19 12 -35 25 -35 30 0 5
-4 9 -10 9 -5 0 -10 -9 -10 -19z"/>
<path d="M1400 3677 c0 -10 -9 -34 -20 -54 -11 -21 -20 -44 -20 -52 0 -18 72
-131 83 -131 14 0 47 84 47 122 0 31 -8 46 -45 85 -30 31 -45 41 -45 30z"/>
<path d="M1680 3654 c-25 -7 -55 -14 -67 -14 -34 0 -29 -12 26 -63 48 -45 108
-71 139 -60 28 10 62 45 62 64 0 31 -21 66 -47 78 -31 14 -57 13 -113 -5z
m125 -64 c3 -6 -4 -10 -17 -10 -18 0 -20 2 -8 10 19 12 18 12 25 0z"/>
<path d="M4270 3657 c-29 -14 -33 -41 -14 -86 11 -26 18 -31 46 -30 24 1 27 3
10 6 l-22 4 20 26 c20 26 25 49 14 77 -7 19 -21 20 -54 3z"/>
<path d="M4355 3622 c-10 -28 -4 -70 12 -83 14 -12 16 -12 9 1 -5 8 2 3 15
-11 13 -15 36 -30 50 -33 l26 -6 -1 65 c-1 46 -5 65 -14 65 -7 0 -11 4 -8 8 2
4 -15 8 -39 8 -28 0 -46 -5 -50 -14z m64 -24 c10 -27 3 -50 -13 -45 -6 2 -19
18 -29 35 l-19 32 26 0 c18 0 29 -7 35 -22z"/>
<path d="M4587 3568 l-68 -41 53 -30 c80 -46 188 -38 188 13 0 18 -7 20 -72
21 -61 1 -68 2 -43 10 17 5 50 8 74 7 56 -4 64 14 19 42 -47 29 -74 25 -151
-22z"/>
<path d="M2121 3587 c-18 -22 -24 -73 -15 -124 l8 -48 8 65 c5 36 10 77 12 93
4 31 3 32 -13 14z"/>
<path d="M1862 3524 c-50 -30 -62 -55 -62 -129 l0 -54 53 30 c28 17 55 36 59
43 9 12 7 136 -2 136 -3 0 -24 -12 -48 -26z m8 -88 c0 -18 -16 -29 -30 -21
-13 8 -1 35 16 35 8 0 14 -6 14 -14z"/>
<path d="M2810 3524 c0 -9 5 -14 12 -12 18 6 21 28 4 28 -9 0 -16 -7 -16 -16z"/>
<path d="M4254 3489 c-3 -5 12 -17 33 -25 20 -9 46 -25 55 -37 24 -27 36 -13
18 21 -16 28 -95 59 -106 41z"/>
<path d="M786 3436 c16 -75 73 -146 116 -146 11 0 29 5 40 11 14 8 23 8 31 0
15 -15 27 -14 27 4 0 8 -4 15 -10 15 -5 0 -10 13 -10 30 0 51 -43 86 -128 103
l-73 14 7 -31z"/>
<path d="M4262 3426 c0 -30 5 -40 24 -48 27 -13 31 -33 8 -42 -24 -9 -86 -7
-80 3 4 5 -3 7 -13 4 -11 -3 -19 -13 -18 -23 1 -11 6 -16 16 -12 9 3 12 1 7
-6 -5 -8 -2 -10 8 -6 9 3 16 2 16 -4 0 -9 51 -10 70 -2 3 1 10 1 15 0 6 -1 7
1 3 5 -9 10 15 34 26 27 5 -3 6 0 3 6 -10 15 3 43 16 35 7 -4 8 0 4 11 -4 10
-7 20 -7 22 0 3 -4 3 -9 -1 -15 -9 -56 15 -73 43 l-16 26 0 -38z"/>
<path d="M5955 3419 c-87 -31 -101 -44 -111 -98 -4 -20 -12 -42 -18 -50 -9
-12 -7 -13 14 -7 14 4 46 8 72 10 50 2 80 21 104 67 16 32 35 110 25 108 -3
-1 -42 -14 -86 -30z"/>
<path d="M1261 3401 c-73 -26 -95 -49 -93 -102 1 -23 -3 -48 -9 -56 -15 -17
-3 -31 13 -15 7 7 27 12 45 12 44 0 78 34 93 91 6 24 15 54 20 67 12 27 4 28
-69 3z"/>
<path d="M2120 3403 c0 -5 10 -19 21 -33 l20 -25 -16 33 c-15 30 -25 41 -25
25z"/>
<path d="M3108 3373 c-27 -2 -48 -8 -48 -13 0 -17 93 -90 114 -90 27 1 88 31
93 46 4 11 -89 66 -104 62 -5 -1 -29 -3 -55 -5z"/>
<path d="M1406 3322 c-11 -72 26 -152 71 -152 15 0 36 -9 48 -20 l21 -20 -1
68 c0 37 -4 73 -9 80 -7 12 -109 82 -119 82 -3 0 -7 -17 -11 -38z"/>
<path d="M5290 3350 c-8 -5 -25 -10 -37 -10 -13 0 -23 -4 -23 -9 0 -5 -13 -23
-30 -39 -34 -35 -39 -73 -12 -100 14 -14 16 -22 8 -35 -13 -20 0 -35 16 -19 7
7 26 12 43 12 20 0 40 9 53 23 19 20 22 35 22 105 0 84 -6 94 -40 72z m-43
-145 c-4 -8 -11 -15 -17 -15 -6 0 -6 7 2 20 14 22 24 19 15 -5z"/>
<path d="M1683 3317 c-23 -17 -46 -42 -52 -55 -14 -29 -14 -79 -1 -87 6 -4 10
-16 8 -27 -2 -12 3 -23 10 -25 6 -3 12 2 12 11 0 9 6 16 14 16 7 0 25 9 40 21
24 19 26 26 26 100 0 43 -3 79 -7 79 -5 0 -27 -15 -50 -33z"/>
<path d="M4548 3339 c-16 -6 -28 -18 -28 -27 0 -14 11 -17 72 -16 66 2 73 4
76 23 3 17 -2 21 -25 21 -15 0 -37 2 -48 5 -11 2 -32 -1 -47 -6z"/>
<path d="M1877 3308 l-29 -13 25 -23 c62 -58 169 -37 129 25 -12 19 -92 25
-125 11z"/>
<path d="M4548 3279 c-26 -15 -22 -25 13 -39 26 -11 33 -11 56 6 14 10 26 24
27 29 2 14 -75 17 -96 4z"/>
<path d="M3068 3233 c-8 -10 -18 -28 -21 -41 -5 -22 -3 -23 31 -17 38 6 66 30
58 52 -3 6 0 14 7 17 7 2 -4 5 -24 5 -23 1 -42 -6 -51 -16z"/>
<path d="M1997 3192 c-38 -91 -31 -104 27 -47 37 36 39 52 7 72 -16 10 -20 6
-34 -25z m43 -6 c0 -2 -7 -9 -15 -16 -12 -10 -15 -10 -15 4 0 9 7 16 15 16 8
0 15 -2 15 -4z"/>
<path d="M855 3133 c14 -118 71 -190 141 -179 18 2 36 0 42 -6 5 -5 18 -8 28
-6 16 3 16 4 2 19 -11 10 -15 29 -13 51 4 39 -15 83 -43 104 -9 7 -35 18 -57
24 -22 6 -55 20 -74 31 l-33 20 7 -58z m155 -123 c0 -5 -2 -10 -4 -10 -3 0 -8
5 -11 10 -3 6 -1 10 4 10 6 0 11 -4 11 -10z"/>
<path d="M5806 3151 c-25 -13 -48 -18 -67 -14 -17 3 -29 1 -29 -5 0 -14 29
-42 44 -42 6 0 19 -13 29 -29 37 -63 132 -77 241 -34 l48 20 -84 56 c-100 68
-129 75 -182 48z"/>
<path d="M3050 3135 c0 -3 7 -21 15 -40 16 -39 49 -57 101 -53 42 3 43 17 3
63 -27 30 -37 35 -75 35 -24 0 -44 -2 -44 -5z"/>
<path d="M2388 3047 c-22 -17 -32 -67 -15 -67 17 0 67 38 67 50 0 18 -37 30
-52 17z"/>
<path d="M2467 3054 c-14 -14 -7 -44 14 -65 20 -20 23 -20 31 -5 16 28 -24 90
-45 70z"/>
<path d="M1300 3008 l-44 -10 41 -39 c46 -43 64 -47 111 -23 31 15 31 16 15
40 -29 44 -46 49 -123 32z"/>
<path d="M3319 2961 c8 -13 5 -28 -9 -55 -25 -50 -13 -89 43 -141 24 -22 48
-49 55 -60 10 -19 11 -18 23 10 7 17 14 59 17 95 3 55 1 69 -17 92 -12 14 -35
29 -51 33 -17 4 -30 13 -30 20 0 7 -7 16 -16 19 -24 9 -26 8 -15 -13z"/>
<path d="M1396 2888 c-7 -13 -16 -35 -20 -50 -5 -22 -3 -28 10 -28 26 0 74 33
74 51 0 51 -39 67 -64 27z"/>
<path d="M5377 2879 c-23 -32 -21 -72 3 -94 19 -17 21 -17 40 0 27 24 25 58
-3 91 l-24 27 -16 -24z"/>
<path d="M3014 2845 c-5 -26 -1 -41 16 -65 12 -16 23 -30 25 -30 11 0 35 62
29 73 -12 20 -47 57 -55 57 -5 0 -11 -16 -15 -35z"/>
<path d="M3935 2870 c-4 -6 -24 -18 -45 -26 -45 -18 -60 -50 -60 -126 l0 -48
48 24 c59 30 87 67 77 105 -3 14 -6 38 -5 54 0 28 -5 34 -15 17z"/>
<path d="M4296 2849 c-38 -35 -38 -36 -27 -72 14 -42 14 -42 45 -22 27 18 38
60 27 101 l-7 28 -38 -35z"/>
<path d="M5518 2850 c-16 -12 -28 -27 -28 -34 0 -7 -9 -21 -20 -31 -25 -22
-26 -39 -2 -26 12 6 23 5 37 -5 22 -16 59 -18 83 -5 9 5 37 27 61 50 l44 40
-29 11 c-16 7 -49 14 -74 17 -36 4 -50 1 -72 -17z"/>
<path d="M3154 2836 c-22 -10 -33 -24 -43 -56 -14 -48 -11 -55 21 -44 13 4 31
8 42 8 10 1 24 10 30 21 6 11 19 31 29 44 9 13 17 28 17 32 0 13 -61 10 -96
-5z"/>
<path d="M4621 2806 c7 -14 15 -26 18 -26 4 0 5 -17 3 -38 -3 -32 1 -44 27
-69 33 -33 94 -53 165 -53 47 0 57 9 32 29 -8 7 -22 34 -32 62 -26 71 -53 92
-127 100 -34 3 -70 9 -80 14 -16 7 -16 5 -6 -19z m89 -52 c0 -14 -3 -14 -15
-4 -8 7 -15 14 -15 16 0 2 7 4 15 4 8 0 15 -7 15 -16z"/>
<path d="M4560 2778 c0 -8 -9 -23 -20 -33 -11 -10 -20 -28 -20 -39 0 -25 35
-86 50 -86 17 0 51 78 44 104 -7 30 -54 77 -54 54z"/>
<path d="M742 2729 c7 -62 36 -118 72 -140 36 -22 72 -25 79 -6 3 8 10 7 26
-7 25 -23 37 -16 22 12 -6 12 -11 32 -11 47 0 54 -26 83 -93 104 -34 10 -71
23 -81 27 -17 7 -19 3 -14 -37z"/>
<path d="M4346 2755 c-8 -8 -22 -15 -30 -15 -27 0 -18 -19 23 -45 l38 -26 52
18 c29 10 53 23 54 28 2 16 -64 55 -94 55 -15 0 -34 -7 -43 -15z"/>
<path d="M5917 2715 c-83 -29 -109 -86 -66 -146 40 -57 114 -20 145 74 9 29
20 56 25 62 5 5 9 13 9 17 0 13 -71 8 -113 -7z"/>
<path d="M5010 2676 c0 -69 81 -120 96 -60 8 30 -22 67 -67 83 -28 10 -29 9
-29 -23z"/>
<path d="M2140 2663 c-8 -3 -26 -10 -39 -15 l-25 -9 34 -29 c45 -39 80 -46
122 -24 18 9 34 18 36 19 2 2 -11 17 -29 34 -31 30 -63 37 -99 24z"/>
<path d="M4306 2578 c-3 -13 -6 -41 -6 -63 0 -33 6 -46 34 -73 l34 -32 13 37
c20 60 20 65 -17 110 -40 49 -49 52 -58 21z"/>
<path d="M5817 2563 c-4 -3 -7 -12 -7 -20 0 -17 26 -17 33 1 8 21 -11 35 -26
19z"/>
<path d="M2526 2508 c-13 -49 -6 -89 19 -113 30 -31 39 -31 53 0 21 47 12 71
-44 118 -21 17 -22 17 -28 -5z"/>
<path d="M687 2501 l-29 -6 31 -42 c17 -23 39 -47 50 -52 26 -14 68 -14 77 0
4 6 19 9 36 5 l29 -6 -18 31 c-36 62 -59 79 -105 78 -24 -1 -56 -4 -71 -8z"/>
<path d="M4855 2484 c-16 -9 -36 -23 -42 -32 -15 -19 -17 -66 -3 -57 6 3 10 1
10 -5 0 -7 13 -10 32 -8 35 3 52 27 64 87 5 26 3 31 -12 31 -11 -1 -32 -8 -49
-16z"/>
<path d="M1860 2475 c0 -16 31 -63 45 -69 20 -7 85 -8 85 -1 0 9 -34 59 -45
67 -12 9 -85 11 -85 3z"/>
<path d="M3240 2456 c-37 -9 -49 -18 -67 -51 -13 -22 -23 -46 -23 -52 0 -18
32 -16 80 3 33 13 42 23 50 56 6 22 10 43 8 47 -2 5 -23 3 -48 -3z"/>
<path d="M4584 2445 c-33 -15 -84 -68 -84 -88 0 -7 4 -19 9 -26 6 -9 6 -22 -1
-34 -9 -17 -7 -18 14 -12 47 15 86 33 93 45 4 6 13 38 19 71 14 66 10 70 -50
44z"/>
<path d="M1806 2417 c-31 -41 -32 -55 -5 -115 l21 -46 24 29 c37 46 40 85 11
129 l-26 37 -25 -34z"/>
<path d="M3320 2431 c-17 -32 -12 -59 19 -93 l28 -32 12 36 c14 42 2 81 -28
98 -16 8 -22 7 -31 -9z"/>
<path d="M4690 2422 c0 -35 22 -62 51 -62 34 0 21 50 -18 73 l-33 19 0 -30z"/>
<path d="M2168 2405 c-3 -3 -26 -7 -52 -9 -58 -4 -76 -21 -110 -99 l-25 -57
51 5 c89 11 135 50 122 102 -3 11 2 27 11 37 10 9 15 19 13 21 -3 3 -7 3 -10
0z"/>
<path d="M3740 2405 c0 -17 42 -84 67 -106 39 -37 67 -43 104 -25 23 11 36 13
50 5 25 -13 24 -8 -6 51 -35 68 -55 80 -142 80 -40 0 -73 -2 -73 -5z"/>
<path d="M855 2383 c-33 -8 -52 -32 -64 -80 -7 -25 -10 -48 -7 -50 10 -11 57
8 88 35 27 25 30 32 24 65 -4 20 -10 36 -14 36 -4 -1 -16 -4 -27 -6z"/>
<path d="M5380 2371 c-5 -11 -10 -29 -10 -40 0 -17 6 -21 34 -21 36 0 49 10
65 53 10 27 10 27 -34 27 -34 0 -47 -5 -55 -19z"/>
<path d="M1699 2317 c-27 -18 -35 -30 -37 -60 -3 -40 6 -45 51 -28 17 7 30 24
41 57 9 26 16 49 16 51 0 11 -42 -1 -71 -20z"/>
<path d="M2328 2323 c-24 -6 -9 -34 32 -63 24 -17 38 -20 70 -15 22 4 40 11
40 15 0 5 -12 22 -26 39 -26 31 -62 38 -116 24z"/>
<path d="M2632 2294 c-27 -19 -30 -54 -4 -54 23 0 52 30 52 53 0 21 -19 22
-48 1z"/>
<path d="M2841 2260 c-34 -43 -41 -59 -36 -79 3 -14 9 -38 12 -53 l5 -27 44
30 c24 16 44 26 44 21 0 -16 30 -23 51 -11 23 12 41 52 33 74 -5 13 -10 13
-40 0 -33 -14 -34 -13 -40 13 -3 15 -11 40 -18 56 l-13 30 -42 -54z"/>
<path d="M5970 2242 c0 -11 4 -23 9 -26 5 -3 7 -24 4 -46 -4 -25 -1 -46 8 -56
19 -23 79 -50 128 -58 37 -6 42 -4 37 9 -3 9 -13 41 -22 71 -20 70 -43 94 -91
94 -20 0 -45 7 -55 17 -17 15 -18 15 -18 -5z"/>
<path d="M4760 2212 c-22 -22 -40 -47 -40 -56 0 -22 28 -76 39 -76 5 0 23 14
41 30 29 27 32 35 26 68 -3 20 -6 45 -6 55 0 26 -15 21 -60 -21z"/>
<path d="M2220 2150 c-20 -39 -20 -43 -5 -66 19 -29 27 -30 50 -4 16 18 17 25
6 60 -16 55 -27 57 -51 10z"/>
<path d="M1963 2173 c-18 -2 -33 -6 -33 -8 0 -2 12 -16 28 -32 15 -15 37 -41
49 -58 20 -28 25 -30 92 -30 67 0 89 9 56 21 -8 4 -15 11 -15 16 0 6 -7 25
-16 43 -23 48 -62 60 -161 48z"/>
<path d="M5183 2170 c-23 -5 -53 -16 -67 -25 -27 -18 -48 -67 -40 -90 3 -8 -1
-22 -10 -30 -9 -9 -16 -24 -16 -32 0 -14 2 -14 18 1 13 11 28 14 50 10 66 -13
105 25 170 169 5 9 -50 7 -105 -3z"/>
<path d="M5514 2148 c-4 -5 -2 -14 4 -20 7 -7 6 -21 -5 -43 -15 -31 -15 -36 4
-67 16 -29 101 -87 127 -88 13 0 -1 150 -15 167 -18 21 -109 62 -115 51z"/>
<path d="M961 2101 l-64 -40 48 -30 c84 -53 177 -49 192 9 3 11 15 20 26 22
12 2 23 11 25 20 2 13 -1 16 -12 12 -9 -4 -29 5 -47 20 -45 38 -90 35 -168
-13z m139 -31 c-8 -5 -24 -9 -35 -9 -16 1 -16 2 5 9 35 11 48 11 30 0z"/>
<path d="M5447 2126 c-3 -8 -22 -16 -43 -18 -26 -2 -43 -11 -56 -29 -22 -29
-34 -95 -24 -133 l6 -25 53 30 c72 42 101 75 92 108 -4 14 -7 38 -6 54 0 29
-13 37 -22 13z"/>
<path d="M5883 1998 c-18 -22 -33 -51 -33 -65 0 -25 47 -123 59 -123 11 0 61
105 61 127 0 17 -38 87 -53 99 -1 1 -17 -16 -34 -38z"/>
<path d="M1215 2020 c-5 -6 -25 -22 -42 -36 -35 -27 -41 -60 -27 -133 l6 -31
39 28 c21 15 46 41 55 59 16 28 16 35 4 60 -7 15 -12 36 -11 46 2 18 -8 22
-24 7z"/>
<path d="M1940 1955 c0 -37 4 -47 26 -62 25 -16 27 -16 40 2 22 30 17 52 -19
79 -19 15 -37 26 -40 26 -4 0 -7 -20 -7 -45z"/>
<path d="M1415 1939 c-20 -22 -34 -43 -31 -46 10 -10 118 -32 131 -26 8 2 26
20 40 39 l26 34 -24 9 c-14 6 -28 15 -32 20 -3 6 -21 11 -39 11 -27 0 -41 -9
-71 -41z"/>
<path d="M2650 1966 c0 -6 11 -29 23 -51 19 -34 28 -41 65 -46 23 -3 42 -2 42
3 0 18 -28 76 -41 83 -24 15 -89 23 -89 11z"/>
<path d="M4510 1937 c0 -7 12 -25 26 -41 24 -25 32 -28 71 -23 24 2 47 7 50
10 3 3 -5 19 -18 36 -21 26 -30 30 -76 30 -36 1 -53 -3 -53 -12z"/>
<path d="M5530 1925 c0 -20 -5 -25 -24 -25 -15 0 -33 -11 -45 -26 -30 -39 -28
-109 7 -189 25 -61 42 -81 42 -52 0 6 21 39 45 72 25 33 48 70 51 82 7 26 -11
87 -32 103 -7 7 -14 23 -14 36 0 15 -6 24 -15 24 -9 0 -15 -9 -15 -25z m3 -85
c-3 -11 -10 -23 -16 -27 -5 -3 -8 -2 -5 3 3 5 8 17 11 27 9 24 16 22 10 -3z"/>
<path d="M4181 1891 c-12 -16 -21 -33 -21 -37 0 -4 -8 -16 -17 -27 -17 -19
-17 -20 5 -14 13 3 35 -1 51 -10 23 -14 31 -14 56 -2 28 14 95 91 95 110 0 5
-33 9 -74 9 -71 0 -76 -1 -95 -29z"/>
<path d="M1609 1863 c-7 -18 -18 -33 -25 -33 -6 0 -19 -9 -30 -21 -36 -40 -12
-165 40 -208 13 -11 17 -10 23 5 4 11 19 40 35 65 35 58 37 107 4 142 -14 15
-26 39 -29 54 l-4 28 -14 -32z"/>
<path d="M5060 1872 c0 -4 9 -18 21 -30 11 -12 17 -27 14 -32 -4 -6 -3 -24 0
-41 11 -47 55 -69 143 -69 66 0 88 9 62 25 -6 4 -24 33 -40 65 -36 70 -57 84
-117 76 -25 -3 -53 -1 -64 4 -10 6 -19 7 -19 2z"/>
<path d="M2615 1827 c-30 -53 -32 -88 -4 -113 19 -17 23 -17 47 -3 20 11 28
24 30 49 3 37 -22 110 -38 110 -5 0 -21 -20 -35 -43z"/>
<path d="M4968 1816 c-36 -57 -35 -82 6 -140 l33 -47 16 40 c9 21 21 42 27 46
27 16 3 111 -34 137 -17 12 -19 10 -48 -36z"/>
<path d="M2958 1804 c-21 -11 -28 -22 -28 -44 0 -24 4 -30 23 -30 34 0 47 13
54 53 6 42 -4 46 -49 21z"/>
<path d="M4611 1776 c-19 -14 -38 -32 -43 -38 -12 -19 -9 -60 6 -87 l13 -23
32 28 c30 27 32 33 29 87 l-3 58 -34 -25z"/>
<path d="M4313 1737 l-32 -34 38 -16 c21 -10 45 -17 54 -17 17 0 87 56 87 70
0 8 -76 30 -102 30 -8 0 -28 -15 -45 -33z"/>
<path d="M2091 1720 c-26 -36 -26 -46 0 -106 l22 -48 23 28 c44 50 44 111 0
139 -22 15 -24 14 -45 -13z"/>
<path d="M1757 1627 c-13 -17 -31 -51 -40 -75 l-16 -43 57 6 c77 10 105 24
115 60 5 17 14 41 21 55 l13 26 -63 2 c-61 1 -64 0 -87 -31z"/>
<path d="M2273 1623 c-40 -14 -44 -19 -59 -70 -9 -30 -13 -57 -10 -60 9 -10
96 28 105 45 6 13 13 108 7 101 0 -1 -20 -8 -43 -16z"/>
<path d="M2021 1549 c-17 -23 -31 -54 -31 -68 0 -28 38 -102 55 -108 11 -3 65
97 65 120 0 6 -14 31 -30 55 l-29 43 -30 -42z"/>
<path d="M2717 1517 c-4 -30 -4 -62 -1 -70 5 -13 105 -87 118 -87 13 0 15 92
3 123 -17 39 -26 46 -64 53 -15 3 -32 12 -38 21 -10 13 -13 6 -18 -40z"/>
</g>
</svg>
